<svg t="1704433380427" class="icon" viewBox="0 0 1024 1024" version="1.1" xmlns="http://www.w3.org/2000/svg" p-id="3667" width="600" height="600"><path d="M320 661.333333m-213.333333 0a213.333333 213.333333 0 1 0 426.666666 0 213.333333 213.333333 0 1 0-426.666666 0Z" fill="#FC280E" p-id="3668"></path><path d="M320 448c117.824 0 213.333333 95.509333 213.333333 213.333333 0 24.597333-4.16 48.213333-11.818666 70.229334-56.234667 40.96-148.458667 40.704-230.101334-6.442667-91.797333-52.992-138.965333-147.178667-115.328-221.269333A212.586667 212.586667 0 0 1 320 448z" fill="#FF5A45" p-id="3669"></path><path d="M320 448c89.642667 0 166.4 55.296 197.973333 133.653333a69.013333 69.013333 0 0 1-8.704 26.197334c-26.517333 45.909333-101.76 52.096-168.106666 13.802666-66.304-38.293333-98.581333-106.56-72.085334-152.469333a68.48 68.48 0 0 1 15.36-18.24C295.957333 449.024 307.861333 448 320 448z" fill="#FF7564" p-id="3670"></path><path d="M238.08 801.877333c75.264 43.456 160.298667 47.914667 224.149333 18.453334A212.522667 212.522667 0 0 1 320 874.666667C202.176 874.666667 106.666667 779.157333 106.666667 661.333333c0-13.76 1.301333-27.242667 3.797333-40.277333 7.786667 68.736 53.824 138.24 127.616 180.821333z" fill="#EC0000" p-id="3671"></path><path d="M329.854103 491.946667a74.666667 42.666667 30 1 0 129.32646 74.666666 74.666667 42.666667 30 1 0-129.32646-74.666666Z" fill="#FD4F38" p-id="3672"></path><path d="M381.930667 552.554667c20.394667 11.797333 41.728 13.077333 47.616 2.858666 5.888-10.197333-5.888-28.010667-26.282667-39.808-20.416-11.776-41.728-13.056-47.616-2.858666-5.909333 10.218667 5.866667 28.032 26.282667 39.808z" fill="#E81B00" p-id="3673"></path><path d="M682.666667 704m-234.666667 0a234.666667 234.666667 0 1 0 469.333333 0 234.666667 234.666667 0 1 0-469.333333 0Z" fill="#FF2D40" p-id="3674"></path><path d="M682.666667 469.333333c129.6 0 234.666667 105.066667 234.666666 234.666667 0 26.88-4.522667 52.736-12.864 76.8-59.52 54.186667-163.797333 69.930667-265.578666 32.896-95.637333-34.816-162.986667-106.730667-179.712-181.461333C489.514667 537.728 578.090667 469.333333 682.666667 469.333333z" fill="#FF4259" p-id="3675"></path><path d="M682.666667 469.333333c89.536 0 167.36 50.133333 206.933333 123.882667a72.149333 72.149333 0 0 1-2.773333 38.272c-20.138667 55.36-108.288 74.112-196.864 41.877333-88.554667-32.234667-144.042667-103.253333-123.882667-158.613333 2.816-7.722667 6.954667-14.72 12.224-20.992A233.770667 233.770667 0 0 1 682.666667 469.333333z" fill="#FF7582" p-id="3676"></path><path d="M469.333333 682.666667c0 129.6 92.992 208.64 228.373334 221.568 59.093333 5.653333 119.893333-8.96 161.216-45.312A234.112 234.112 0 0 1 682.666667 938.666667c-129.6 0-234.666667-105.066667-234.666667-234.666667 0-70.229333 30.848-133.248 79.744-176.256A233.770667 233.770667 0 0 0 469.333333 682.666667z" fill="#E01023" p-id="3677"></path><path d="M653.551563 523.902281a85.333333 42.666667 20 1 0 160.374207 58.371438 85.333333 42.666667 20 1 0-160.374207-58.371438Z" fill="#FF384B" p-id="3678"></path><path d="M724.522667 581.376c22.144 8.064 43.370667 5.632 47.381333-5.44 4.053333-11.093333-10.645333-26.581333-32.789333-34.645333-22.144-8.064-43.349333-5.610667-47.381334 5.461333-4.053333 11.072 10.666667 26.581333 32.789334 34.624z" fill="#EC0000" p-id="3679"></path><path d="M185.754305 559.845695a21.333333 53.333333 45 1 0 75.424723-75.424723 21.333333 53.333333 45 1 0-75.424723 75.424723Z" fill="#FFD8DC" p-id="3680"></path><path d="M875.882667 679.574688a53.333333 32 60 1 0-53.333334-92.376043 53.333333 32 60 1 0 53.333334 92.376043Z" fill="#FFD8DC" p-id="3681"></path><path d="M529.493333 85.333333a7017.173333 7017.173333 0 0 0 4.266667 75.114667c200 132.245333 273.493333 267.925333 214.698667 405.226667-4.202667 6.037333-10.581333 6.890667-19.114667 2.56s-11.968-9.386667-10.304-15.146667c49.578667-115.84-10.026667-233.024-183.978667-353.152 1.664 171.946667-51.626667 249.92-129.493333 342.528-5.354667 5.504-11.306667 5.845333-17.813333 1.024-6.528-4.821333-8.042667-10.944-4.586667-18.410667C459.370667 426.261333 533.333333 320.746667 489.173333 129.066667c-2.965333-5.354667-5.674667-19.925333-8.149333-43.712h48.490667z" fill="#3DAF69" p-id="3682"></path><path d="M513.194667 136.96c11.754667 112.448-18.389333 177.322667-89.941334 212.288-109.653333 53.589333-136.810667 28.821333-209.92 53.162667 31.936-43.776 9.792-136.576 96.576-220.053334 57.856-55.637333 121.898667-66.858667 203.306667-45.397333z" fill="#31C469" p-id="3683"></path><path d="M513.194667 136.96c-17.322667 11.52-45.098667 30.592-83.349334 57.301333-83.114667 58.069333-114.965333 116.928-152.938666 152.448-25.301333 23.68-46.656 42.282667-64.064 55.808l0.917333-0.704 1.621333-2.389333c28.949333-44.906667 9.664-135.466667 94.506667-217.066667 57.877333-55.637333 121.92-66.858667 203.306667-45.397333z" fill="#00A23E" p-id="3684"></path></svg>